name C:/MyDriveSym/Projects/mobilecap/Data\Session20210910_0002\mocap\ForceDataProcessed\walking2_forces.mot
datacolumns 19
datarows 12
range 1.01950000 1.02500000
endheader 
time	R_ground_force_vx	R_ground_force_vy	R_ground_force_vz	R_ground_force_px	R_ground_force_py	R_ground_force_pz	R_ground_torque_x	R_ground_torque_y	R_ground_torque_z	L_ground_force_vx	L_ground_force_vy	L_ground_force_vz	L_ground_force_px	L_ground_force_py	L_ground_force_pz	L_ground_torque_x	L_ground_torque_y	L_ground_torque_z	
          1.01950000	          0.00000000	          0.00000000	          0.00000000	          1.28395200	          0.00000000	         -0.25680800	          0.00000000	          0.00000000	          0.00000000	         35.29453700	        849.40497700	         47.23584700	          1.00453100	          0.00600000	         -0.38333500	          0.00000000	          5.67639100	          0.00000000	
          1.02000000	          0.00000000	          0.00000000	          0.00000000	          1.28545900	          0.00000000	         -0.25689500	          0.00000000	          0.00000000	          0.00000000	         35.84594100	        850.55318800	         47.31366100	          1.00456600	          0.00600000	         -0.38331800	          0.00000000	          5.68233200	          0.00000000	
          1.02050000	          0.00000000	          0.00000000	          0.00000000	          1.28696600	          0.00000000	         -0.25698200	          0.00000000	          0.00000000	          0.00000000	         36.39898100	        851.70239100	         47.39104600	          1.00460100	          0.00600000	         -0.38330100	          0.00000000	          5.68816200	          0.00000000	
          1.02100000	          0.00000000	          0.00000000	          0.00000000	          1.28847300	          0.00000000	         -0.25706900	          0.00000000	          0.00000000	          0.00000000	         36.95364500	        852.85249400	         47.46799100	          1.00463600	          0.00600000	         -0.38328400	          0.00000000	          5.69387800	          0.00000000	
          1.02150000	          0.00000000	          0.00000000	          0.00000000	          1.28998000	          0.00000000	         -0.25715600	          0.00000000	          0.00000000	          0.00000000	         37.50991900	        854.00340000	         47.54448500	          1.00467100	          0.00600000	         -0.38326700	          0.00000000	          5.69947900	          0.00000000	
          1.02200000	          0.00000000	          0.00000000	          0.00000000	          1.29148600	          0.00000000	         -0.25724300	          0.00000000	          0.00000000	          0.00000000	         38.06779100	        855.15501300	         47.62051600	          1.00470600	          0.00600000	         -0.38325000	          0.00000000	          5.70496500	          0.00000000	
          1.02250000	          0.00000000	          0.00000000	          0.00000000	          1.29299300	          0.00000000	         -0.25733000	          0.00000000	          0.00000000	          0.00000000	         38.62724500	        856.30723700	         47.69607400	          1.00474000	          0.00600000	         -0.38323300	          0.00000000	          5.71033400	          0.00000000	
          1.02300000	          0.00000000	          0.00000000	          0.00000000	          1.29450000	          0.00000000	         -0.25741700	          0.00000000	          0.00000000	          0.00000000	         39.18827000	        857.45997400	         47.77114600	          1.00477500	          0.00600000	         -0.38321600	          0.00000000	          5.71558400	          0.00000000	
          1.02350000	          0.00000000	          0.00000000	          0.00000000	          1.29600700	          0.00000000	         -0.25750400	          0.00000000	          0.00000000	          0.00000000	         39.75085000	        858.61312500	         47.84572100	          1.00480900	          0.00600000	         -0.38319900	          0.00000000	          5.72071600	          0.00000000	
          1.02400000	          0.00000000	          0.00000000	          0.00000000	          1.29751400	          0.00000000	         -0.25759100	          0.00000000	          0.00000000	          0.00000000	         40.31497100	        859.76659100	         47.91978900	          1.00484300	          0.00600000	         -0.38318300	          0.00000000	          5.72572700	          0.00000000	
          1.02450000	          0.00000000	          0.00000000	          0.00000000	          1.29902000	          0.00000000	         -0.25767800	          0.00000000	          0.00000000	          0.00000000	         40.88061900	        860.92027000	         47.99333800	          1.00487700	          0.00600000	         -0.38316600	          0.00000000	          5.73061600	          0.00000000	
          1.02500000	          0.00000000	          0.00000000	          0.00000000	          1.30052700	          0.00000000	         -0.25776500	          0.00000000	          0.00000000	          0.00000000	         41.44777800	        862.07406300	         48.06635700	          1.00491100	          0.00600000	         -0.38314900	          0.00000000	          5.73538300	          0.00000000	
